<mxfile host="app.diagrams.net" agent="Mozilla/5.0 (Windows NT 10.0; Win64; x64) AppleWebKit/537.36 (KHTML, like Gecko) Chrome/134.0.0.0 Safari/537.36" version="26.0.8">
  <diagram name="Page-1" id="uN-BeuZ9Wt3ak35LYzj8">
    <mxGraphModel dx="5824" dy="1000" grid="1" gridSize="10" guides="1" tooltips="1" connect="1" arrows="1" fold="1" page="1" pageScale="1" pageWidth="1920" pageHeight="1200" math="0" shadow="0">
      <root>
        <mxCell id="0" />
        <mxCell id="1" parent="0" />
        <mxCell id="IVCFsc5CDBhLXZKEqtSM-58" value="" style="rounded=0;whiteSpace=wrap;html=1;fillColor=default;strokeColor=light-dark(#008a00, #446e2c);fontColor=light-dark(#008a00, #ededed);strokeWidth=2;" vertex="1" parent="1">
          <mxGeometry x="-3150" y="260" width="900" height="480" as="geometry" />
        </mxCell>
        <mxCell id="IVCFsc5CDBhLXZKEqtSM-4" value="&lt;font style=&quot;font-size: 22px;&quot;&gt;3&lt;/font&gt;" style="ellipse;whiteSpace=wrap;html=1;aspect=fixed;rotation=0;gradientColor=none;strokeColor=none;gradientDirection=east;fillColor=light-dark(#9933ff, #32b532);rounded=0;pointerEvents=0;fontFamily=Helvetica;fontSize=16;fontColor=#FFFFFF;spacingTop=4;spacingBottom=4;spacingLeft=4;spacingRight=4;points=[];fontStyle=1" vertex="1" parent="1">
          <mxGeometry x="-2327.721803278688" y="583.8161411516645" width="56.18601743062313" height="56.18601743062313" as="geometry" />
        </mxCell>
        <mxCell id="IVCFsc5CDBhLXZKEqtSM-71" style="edgeStyle=orthogonalEdgeStyle;rounded=0;orthogonalLoop=1;jettySize=auto;html=1;entryX=0;entryY=0.5;entryDx=0;entryDy=0;strokeWidth=3;endSize=14;startSize=14;strokeColor=light-dark(#008a00, #ededed);jumpStyle=none;" edge="1" parent="1" source="IVCFsc5CDBhLXZKEqtSM-7" target="IVCFsc5CDBhLXZKEqtSM-23">
          <mxGeometry relative="1" as="geometry" />
        </mxCell>
        <mxCell id="IVCFsc5CDBhLXZKEqtSM-7" value="&lt;font style=&quot;font-size: 22px;&quot;&gt;&lt;b&gt;Dataset&lt;/b&gt;&lt;/font&gt;" style="shape=process;whiteSpace=wrap;html=1;backgroundOutline=1;fillColor=#00FFFF;strokeWidth=2;" vertex="1" parent="1">
          <mxGeometry x="-3510" y="446.5154481323858" width="229.18032786885243" height="116.51509882229524" as="geometry" />
        </mxCell>
        <mxCell id="IVCFsc5CDBhLXZKEqtSM-63" value="" style="rounded=0;whiteSpace=wrap;html=1;fillColor=none;dashed=1;dashPattern=8 8;strokeColor=light-dark(#0066cc, #ededed);strokeWidth=2;" vertex="1" parent="1">
          <mxGeometry x="-3130" y="310" width="860" height="210" as="geometry" />
        </mxCell>
        <mxCell id="IVCFsc5CDBhLXZKEqtSM-65" style="edgeStyle=orthogonalEdgeStyle;rounded=0;orthogonalLoop=1;jettySize=auto;html=1;startArrow=classic;startFill=1;endArrow=none;strokeWidth=3;startSize=14;strokeColor=light-dark(#0066cc, #ededed);" edge="1" parent="1" source="IVCFsc5CDBhLXZKEqtSM-8" target="IVCFsc5CDBhLXZKEqtSM-40">
          <mxGeometry relative="1" as="geometry" />
        </mxCell>
        <mxCell id="IVCFsc5CDBhLXZKEqtSM-8" value="&lt;font style=&quot;font-size: 22px;&quot; color=&quot;#ffffff&quot;&gt;&lt;b&gt;Model&lt;/b&gt;&lt;/font&gt;" style="shape=cylinder3;whiteSpace=wrap;html=1;boundedLbl=1;backgroundOutline=1;size=15;fillColor=#0066CC;" vertex="1" parent="1">
          <mxGeometry x="-2513.9262295081967" y="331.49299754353336" width="152.78688524590163" height="167.00497497862318" as="geometry" />
        </mxCell>
        <mxCell id="IVCFsc5CDBhLXZKEqtSM-73" style="edgeStyle=orthogonalEdgeStyle;rounded=0;orthogonalLoop=1;jettySize=auto;html=1;strokeWidth=3;endSize=14;startSize=14;strokeColor=light-dark(#ff8000, #ededed);entryX=0.5;entryY=0;entryDx=0;entryDy=0;" edge="1" parent="1" source="IVCFsc5CDBhLXZKEqtSM-9" target="IVCFsc5CDBhLXZKEqtSM-76">
          <mxGeometry relative="1" as="geometry">
            <mxPoint x="-2660" y="810" as="targetPoint" />
            <Array as="points">
              <mxPoint x="-2655" y="699" />
            </Array>
          </mxGeometry>
        </mxCell>
        <mxCell id="IVCFsc5CDBhLXZKEqtSM-9" value="&lt;font style=&quot;font-size: 22px;&quot;&gt;Predicted Labels&lt;/font&gt;" style="rounded=0;whiteSpace=wrap;html=1;fillColor=#CCCCFF;" vertex="1" parent="1">
          <mxGeometry x="-2547.3483606557375" y="679.9999277363207" width="219.63114754098362" height="38.83836627409841" as="geometry" />
        </mxCell>
        <mxCell id="IVCFsc5CDBhLXZKEqtSM-72" style="edgeStyle=orthogonalEdgeStyle;rounded=0;orthogonalLoop=1;jettySize=auto;html=1;strokeWidth=3;endSize=14;startSize=14;strokeColor=light-dark(#ff8000, #ededed);entryX=0.5;entryY=0;entryDx=0;entryDy=0;" edge="1" parent="1" source="IVCFsc5CDBhLXZKEqtSM-10" target="IVCFsc5CDBhLXZKEqtSM-76">
          <mxGeometry relative="1" as="geometry">
            <mxPoint x="-2660" y="810" as="targetPoint" />
            <Array as="points">
              <mxPoint x="-2655" y="699" />
            </Array>
          </mxGeometry>
        </mxCell>
        <mxCell id="IVCFsc5CDBhLXZKEqtSM-10" value="&lt;font style=&quot;font-size: 22px;&quot;&gt;True Labels&lt;/font&gt;" style="rounded=0;whiteSpace=wrap;html=1;fillColor=#99FF99;" vertex="1" parent="1">
          <mxGeometry x="-2999.8108196721314" y="679.9999277363207" width="219.63114754098362" height="38.83836627409841" as="geometry" />
        </mxCell>
        <mxCell id="IVCFsc5CDBhLXZKEqtSM-11" style="edgeStyle=none;curved=1;rounded=0;orthogonalLoop=1;jettySize=auto;html=1;exitX=0.5;exitY=1;exitDx=0;exitDy=0;fontSize=12;startSize=14;endSize=14;entryX=0.5;entryY=0;entryDx=0;entryDy=0;strokeColor=light-dark(#ff8000, #ededed);strokeWidth=3;" edge="1" parent="1" source="IVCFsc5CDBhLXZKEqtSM-23" target="IVCFsc5CDBhLXZKEqtSM-10">
          <mxGeometry relative="1" as="geometry">
            <mxPoint x="-2876.7950819672133" y="724.0555219333042" as="sourcePoint" />
            <mxPoint x="-2874.8852459016393" y="782.3130713444518" as="targetPoint" />
          </mxGeometry>
        </mxCell>
        <mxCell id="IVCFsc5CDBhLXZKEqtSM-13" value="&lt;font style=&quot;font-size: 22px;&quot;&gt;4&lt;/font&gt;" style="ellipse;whiteSpace=wrap;html=1;aspect=fixed;rotation=0;gradientColor=none;strokeColor=none;gradientDirection=east;fillColor=#FF8000;rounded=0;pointerEvents=0;fontFamily=Helvetica;fontSize=16;fontColor=#FFFFFF;spacingTop=4;spacingBottom=4;spacingLeft=4;spacingRight=4;points=[];fontStyle=1" vertex="1" parent="1">
          <mxGeometry x="-2630.0019672131143" y="760.0023783251731" width="56.18601743062313" height="56.18601743062313" as="geometry" />
        </mxCell>
        <mxCell id="IVCFsc5CDBhLXZKEqtSM-16" value="&lt;font style=&quot;font-size: 22px;&quot;&gt;1&lt;/font&gt;" style="ellipse;whiteSpace=wrap;html=1;aspect=fixed;rotation=0;gradientColor=none;strokeColor=none;gradientDirection=east;fillColor=light-dark(#008a00, #da83ff);rounded=0;pointerEvents=0;fontFamily=Helvetica;fontSize=16;fontColor=#FFFFFF;spacingTop=4;spacingBottom=4;spacingLeft=4;spacingRight=4;points=[];fontStyle=1" vertex="1" parent="1">
          <mxGeometry x="-3260.001475409836" y="339.99614115166446" width="56.18601743062313" height="56.18601743062313" as="geometry" />
        </mxCell>
        <mxCell id="IVCFsc5CDBhLXZKEqtSM-57" value="&lt;font style=&quot;font-size: 22px;&quot;&gt;2&lt;/font&gt;" style="ellipse;whiteSpace=wrap;html=1;aspect=fixed;rotation=0;gradientColor=none;strokeColor=none;gradientDirection=east;fillColor=light-dark(#0066cc, #56aeff);rounded=0;pointerEvents=0;fontFamily=Helvetica;fontSize=16;fontColor=#FFFFFF;spacingTop=4;spacingBottom=4;spacingLeft=4;spacingRight=4;points=[];fontStyle=1" vertex="1" parent="1">
          <mxGeometry x="-2349.998524590164" y="380.0016718344316" width="62.98452553972854" height="62.98452553972854" as="geometry" />
        </mxCell>
        <mxCell id="IVCFsc5CDBhLXZKEqtSM-40" value="" style="rounded=1;whiteSpace=wrap;html=1;fillColor=#008a00;strokeColor=#000000;fontColor=#ffffff;" vertex="1" parent="1">
          <mxGeometry x="-3109.6263934426233" y="327.6098761563279" width="439.26229508196724" height="174.77264823344288" as="geometry" />
        </mxCell>
        <mxCell id="IVCFsc5CDBhLXZKEqtSM-41" value="&lt;font style=&quot;font-size: 22px;&quot;&gt;&lt;b&gt;Train Folds&lt;/b&gt;&lt;/font&gt;" style="text;html=1;align=center;verticalAlign=middle;whiteSpace=wrap;rounded=0;fontSize=16;fontColor=#FFFFFF;" vertex="1" parent="1">
          <mxGeometry x="-3014.1426229508197" y="388.26" width="248.27868852459017" height="58.25754941114762" as="geometry" />
        </mxCell>
        <mxCell id="IVCFsc5CDBhLXZKEqtSM-67" style="edgeStyle=orthogonalEdgeStyle;rounded=0;orthogonalLoop=1;jettySize=auto;html=1;strokeColor=light-dark(#9933ff, #ededed);strokeWidth=3;endSize=14;" edge="1" parent="1" source="IVCFsc5CDBhLXZKEqtSM-23" target="IVCFsc5CDBhLXZKEqtSM-66">
          <mxGeometry relative="1" as="geometry" />
        </mxCell>
        <mxCell id="IVCFsc5CDBhLXZKEqtSM-23" value="" style="rounded=1;whiteSpace=wrap;html=1;fillColor=#008a00;strokeColor=#000000;fontColor=#ffffff;" vertex="1" parent="1">
          <mxGeometry x="-3109.63" y="540" width="439.26" height="100" as="geometry" />
        </mxCell>
        <mxCell id="IVCFsc5CDBhLXZKEqtSM-24" value="&lt;font style=&quot;font-size: 22px;&quot;&gt;&lt;b&gt;Test Fold&lt;/b&gt;&lt;/font&gt;" style="text;html=1;align=center;verticalAlign=middle;whiteSpace=wrap;rounded=0;fontSize=16;fontColor=#FFFFFF;" vertex="1" parent="1">
          <mxGeometry x="-3014.1426229508197" y="560.8695693475989" width="248.27868852459017" height="58.25754941114762" as="geometry" />
        </mxCell>
        <mxCell id="IVCFsc5CDBhLXZKEqtSM-59" value="&lt;font style=&quot;font-size: 22px;&quot;&gt;&lt;b&gt;K-Folds&lt;/b&gt;&lt;/font&gt;" style="text;html=1;align=center;verticalAlign=middle;whiteSpace=wrap;rounded=0;fontColor=light-dark(#008a00, #ededed);" vertex="1" parent="1">
          <mxGeometry x="-3130" y="270" width="90" height="30" as="geometry" />
        </mxCell>
        <mxCell id="IVCFsc5CDBhLXZKEqtSM-64" value="&lt;font style=&quot;font-size: 22px;&quot;&gt;&lt;b&gt;Train loop&lt;/b&gt;&lt;/font&gt;" style="text;html=1;align=center;verticalAlign=middle;whiteSpace=wrap;rounded=0;fontColor=light-dark(#0066cc, #ededed);" vertex="1" parent="1">
          <mxGeometry x="-2660" y="327.61" width="140.89" height="30" as="geometry" />
        </mxCell>
        <mxCell id="IVCFsc5CDBhLXZKEqtSM-68" style="edgeStyle=orthogonalEdgeStyle;rounded=0;orthogonalLoop=1;jettySize=auto;html=1;endArrow=none;startFill=1;startArrow=classic;startSize=12;strokeWidth=3;strokeColor=light-dark(#0066cc, #ededed);" edge="1" parent="1" source="IVCFsc5CDBhLXZKEqtSM-66" target="IVCFsc5CDBhLXZKEqtSM-8">
          <mxGeometry relative="1" as="geometry" />
        </mxCell>
        <mxCell id="IVCFsc5CDBhLXZKEqtSM-69" style="edgeStyle=orthogonalEdgeStyle;rounded=0;orthogonalLoop=1;jettySize=auto;html=1;entryX=0.5;entryY=0;entryDx=0;entryDy=0;strokeWidth=3;startSize=14;strokeColor=light-dark(#9933ff, #ededed);endSize=14;" edge="1" parent="1" source="IVCFsc5CDBhLXZKEqtSM-66" target="IVCFsc5CDBhLXZKEqtSM-9">
          <mxGeometry relative="1" as="geometry" />
        </mxCell>
        <mxCell id="IVCFsc5CDBhLXZKEqtSM-66" value="&lt;font color=&quot;#ffffff&quot;&gt;&lt;span style=&quot;font-size: 22px;&quot;&gt;&lt;b&gt;Trained Model&lt;/b&gt;&lt;/span&gt;&lt;/font&gt;" style="shape=cylinder3;whiteSpace=wrap;html=1;boundedLbl=1;backgroundOutline=1;size=15;fillColor=light-dark(#9933ff, #56aeff);" vertex="1" parent="1">
          <mxGeometry x="-2513.9300000000003" y="545" width="152.79" height="90" as="geometry" />
        </mxCell>
        <mxCell id="IVCFsc5CDBhLXZKEqtSM-70" style="edgeStyle=orthogonalEdgeStyle;rounded=0;orthogonalLoop=1;jettySize=auto;html=1;strokeWidth=3;startSize=14;endSize=14;strokeColor=light-dark(#008a00, #ededed);" edge="1" parent="1" source="IVCFsc5CDBhLXZKEqtSM-7" target="IVCFsc5CDBhLXZKEqtSM-40">
          <mxGeometry relative="1" as="geometry" />
        </mxCell>
        <mxCell id="IVCFsc5CDBhLXZKEqtSM-83" value="" style="group" vertex="1" connectable="0" parent="1">
          <mxGeometry x="-2890" y="840" width="470" height="100.5" as="geometry" />
        </mxCell>
        <mxCell id="IVCFsc5CDBhLXZKEqtSM-76" value="" style="rounded=0;whiteSpace=wrap;html=1;strokeColor=light-dark(#ff8000, #ededed);strokeWidth=1;" vertex="1" parent="IVCFsc5CDBhLXZKEqtSM-83">
          <mxGeometry width="470" height="100.5" as="geometry" />
        </mxCell>
        <mxCell id="IVCFsc5CDBhLXZKEqtSM-77" value="&lt;font style=&quot;font-size: 22px; color: light-dark(rgb(255, 255, 255), rgb(237, 237, 237));&quot;&gt;&lt;b&gt;Metrics Fold 1&lt;/b&gt;&lt;/font&gt;" style="rounded=1;whiteSpace=wrap;html=1;fillColor=light-dark(#ff8000, #e96b12);fontColor=#000000;strokeColor=light-dark(#ffffff, #ff9164);arcSize=50;" vertex="1" parent="IVCFsc5CDBhLXZKEqtSM-83">
          <mxGeometry x="10" y="11.450000000000045" width="180" height="77.6" as="geometry" />
        </mxCell>
        <mxCell id="IVCFsc5CDBhLXZKEqtSM-78" value="&lt;font style=&quot;font-size: 22px; color: light-dark(rgb(255, 255, 255), rgb(237, 237, 237));&quot;&gt;&lt;b&gt;Metrics Fold K&lt;/b&gt;&lt;/font&gt;" style="rounded=1;whiteSpace=wrap;html=1;fillColor=light-dark(#ff8000, #e96b12);fontColor=#000000;strokeColor=light-dark(#ffffff, #ff9164);arcSize=50;" vertex="1" parent="IVCFsc5CDBhLXZKEqtSM-83">
          <mxGeometry x="279.99999999999955" y="11.450000000000045" width="180" height="77.6" as="geometry" />
        </mxCell>
        <mxCell id="IVCFsc5CDBhLXZKEqtSM-79" value="" style="ellipse;whiteSpace=wrap;html=1;aspect=fixed;strokeColor=none;fillColor=light-dark(#ff8000, #ededed);" vertex="1" parent="IVCFsc5CDBhLXZKEqtSM-83">
          <mxGeometry x="230.19000000000005" y="45.25" width="10" height="10" as="geometry" />
        </mxCell>
        <mxCell id="IVCFsc5CDBhLXZKEqtSM-81" value="" style="ellipse;whiteSpace=wrap;html=1;aspect=fixed;strokeColor=none;fillColor=light-dark(#ff8000, #ededed);" vertex="1" parent="IVCFsc5CDBhLXZKEqtSM-83">
          <mxGeometry x="260" y="45.25" width="10" height="10" as="geometry" />
        </mxCell>
        <mxCell id="IVCFsc5CDBhLXZKEqtSM-82" value="" style="ellipse;whiteSpace=wrap;html=1;aspect=fixed;strokeColor=none;fillColor=light-dark(#ff8000, #ededed);" vertex="1" parent="IVCFsc5CDBhLXZKEqtSM-83">
          <mxGeometry x="200" y="45.25" width="10" height="10" as="geometry" />
        </mxCell>
      </root>
    </mxGraphModel>
  </diagram>
</mxfile>
